<svg xmlns="http://www.w3.org/2000/svg" style="display: none;">
    
    <!-- Logo Icon -->
    <symbol id="logo-icon" viewBox="0 0 24 24" fill="currentColor" >
        <path d="M12 2c-.4 2.3-1.8 3.7-4.1 4.1C10.2 6.5 11.6 7.9 12 10.2c.4-2.3 1.8-3.7 4.1-4.1-2.3-.4-3.7-1.8-4.1-4.1zM6 10c-.3 1.7-1.3 2.7-3 3 1.7.3 2.7 1.3 3 3 .3-1.7 1.3-2.7 3-3-1.7-.3-2.7-1.3-3-3zm12 2c-.3 1.7-1.3 2.7-3 3 1.7.3 2.7 1.3 3 3 .3-1.7 1.3-2.7 3-3-1.7-.3-2.7-1.3-3-3z"/>
    </symbol>

    <!-- Spyglass Icon -->
    <symbol id="spyglass-icon" viewBox="0 0 24 24" fill="none" stroke="currentColor" stroke-width="2" stroke-linecap="round" stroke-linejoin="round">
        <circle cx="11" cy="11" r="8"></circle>
        <line x1="21" y1="21" x2="16.65" y2="16.65"></line>
    </symbol>

    <!-- Hamburger Icon -->
    <symbol id="hamburger-icon" viewBox="0 0 24 24" fill="none" stroke="currentColor" stroke-width="2" stroke-linecap="round" stroke-linejoin="round">
        <line x1="4" y1="12" x2="20" y2="12"></line>
        <line x1="4" y1="6" x2="20" y2="6"></line>
        <line x1="4" y1="18" x2="20" y2="18"></line>
    </symbol>

    <!-- Heart Icon -->
    <symbol id="heart-icon" viewBox="0 0 24 24" fill="none" stroke="currentColor" stroke-width="2" stroke-linecap="round" stroke-linejoin="round">
        <path d="M20.84 4.61a5.5 5.5 0 0 0-7.78 0L12 5.67l-1.06-1.06a5.5 5.5 0 0 0-7.78 7.78l1.06 1.06L12 21.23l7.78-7.78 1.06-1.06a5.5 5.5 0 0 0 0-7.78z"></path>
    </symbol>

    <!-- Ticket Icon -->
    <symbol id="ticket-icon" viewBox="0 0 24 24" fill="none" stroke="currentColor" stroke-width="2" stroke-linecap="round" stroke-linejoin="round">
        <path d="M2 9a3 3 0 0 1 0 6v2a2 2 0 0 0 2 2h16a2 2 0 0 0 2-2v-2a3 3 0 0 1 0-6V7a2 2 0 0 0-2-2H4a2 2 0 0 0-2 2v2z"></path>
        <line x1="9" y1="5" x2="9" y2="19"></line>
    </symbol>

    <!-- People Icon -->
    <symbol id="people-icon" viewBox="0 0 24 24" fill="none" stroke="currentColor" stroke-width="2" stroke-linecap="round" stroke-linejoin="round">
        <path d="M17 21v-2a4 4 0 0 0-4-4H5a4 4 0 0 0-4 4v2"></path>
        <circle cx="9" cy="7" r="4"></circle>
        <path d="M23 21v-2a4 4 0 0 0-3-3.87"></path>
        <path d="M16 3.13a4 4 0 0 1 0 7.75"></path>
    </symbol>

    <!-- Location Icon -->
    <symbol id="location-icon" viewBox="0 0 24 24" fill="none" stroke="currentColor" stroke-width="2" stroke-linecap="round" stroke-linejoin="round">
        <path d="M21 10c0 7-9 13-9 13s-9-6-9-13a9 9 0 0 1 18 0z"></path>
        <circle cx="12" cy="10" r="3"></circle>
    </symbol>

    <!-- Instagram Icon -->
    <symbol id="instagram-icon" viewBox="0 0 24 24" fill="none" stroke="currentColor" stroke-width="2" stroke-linecap="round" stroke-linejoin="round">
        <rect x="2" y="2" width="20" height="20" rx="5" ry="5"></rect>
        <path d="M16 11.37A4 4 0 1 1 12.63 8 4 4 0 0 1 16 11.37z"></path>
        <line x1="17.5" y1="6.5" x2="17.51" y2="6.5"></line>
    </symbol>

    <!-- Facebook Icon -->
    <symbol id="facebook-icon" viewBox="0 0 24 24" fill="none" stroke="currentColor" stroke-width="2" stroke-linecap="round" stroke-linejoin="round">
        <path d="M18 2h-3a5 5 0 0 0-5 5v3H7v4h3v8h4v-8h3l1-4h-4V7a1 1 0 0 1 1-1h3z"></path>
    </symbol>

    <!-- X Icon -->
    <symbol id="x-icon" viewBox="0 0 24 24" fill="none" stroke="currentColor" stroke-width="2" stroke-linecap="round" stroke-linejoin="round">
        <path d="M23 3a10.9 10.9 0 0 1-3.14 1.53 4.48 4.48 0 0 0-7.86 3v1A10.66 10.66 0 0 1 3 4s-4 9 5 13a11.64 11.64 0 0 1-7 2c9 5 20 0 20-11.5a4.5 4.5 0 0 0-.08-.83A7.72 7.72 0 0 0 23 3z"></path>
    </symbol>
</svg>